ffmpeg started on 2022-05-10 at 02:36:43
Report written to "ffmpeg-20220510-023643.log"
ffmpeg version 4.2.6 Copyright (c) 2000-2022 the FFmpeg developers
  built with gcc 8 (GCC)
  configuration: --prefix=/usr --bindir=/usr/bin --datadir=/usr/share/ffmpeg --docdir=/usr/share/doc/ffmpeg --incdir=/usr/include/ffmpeg --libdir=/usr/lib64 --mandir=/usr/share/man --arch=x86_64 --optflags='-O2 -g -pipe -Wall -Werror=format-security -Wp,-D_FORTIFY_SOURCE=2 -Wp,-D_GLIBCXX_ASSERTIONS -fexceptions -fstack-protector-strong -grecord-gcc-switches -specs=/usr/lib/rpm/redhat/redhat-hardened-cc1 -specs=/usr/lib/rpm/redhat/redhat-annobin-cc1 -m64 -mtune=generic -fasynchronous-unwind-tables -fstack-clash-protection -fcf-protection' --extra-ldflags='-Wl,-z,relro -Wl,-z,now -specs=/usr/lib/rpm/redhat/redhat-hardened-ld ' --extra-cflags=' ' --enable-libopencore-amrnb --enable-libopencore-amrwb --enable-libvo-amrwbenc --enable-version3 --enable-bzlib --disable-crystalhd --enable-fontconfig --enable-frei0r --enable-gcrypt --enable-gnutls --enable-ladspa --enable-libaom --enable-libdav1d --enable-libass --enable-libbluray --enable-libcdio --enable-libdrm --enable-libjack --enable-libfreetype --enable-libfribidi --enable-libgsm --enable-libmp3lame --enable-nvenc --enable-openal --enable-opencl --enable-opengl --enable-libopenjpeg --enable-libopus --enable-libpulse --enable-librsvg --enable-libsrt --enable-libsoxr --enable-libspeex --enable-libssh --enable-libtheora --enable-libvorbis --enable-libv4l2 --enable-libvidstab --enable-libvmaf --enable-version3 --enable-vapoursynth --enable-libvpx --enable-libx264 --enable-libx265 --enable-libxvid --enable-libzimg --enable-libzvbi --enable-avfilter --enable-avresample --enable-libmodplug --enable-postproc --enable-pthreads --disable-static --enable-shared --enable-gpl --disable-debug --disable-stripping --shlibdir=/usr/lib64 --enable-libmfx --enable-runtime-cpudetect
  libavutil      56. 31.100 / 56. 31.100
  libavcodec     58. 54.100 / 58. 54.100
  libavformat    58. 29.100 / 58. 29.100
  libavdevice    58.  8.100 / 58.  8.100
  libavfilter     7. 57.100 /  7. 57.100
  libavresample   4.  0.  0 /  4.  0.  0
  libswscale      5.  5.100 /  5.  5.100
  libswresample   3.  5.100 /  3.  5.100
  libpostproc    55.  5.100 / 55.  5.100
Input #0, matroska,webm, from 'uhd1.webm':
  Metadata:
    encoder         : google/video-file
  Duration: 00:05:13.78, start: 0.000000, bitrate: 25462 kb/s
    Stream #0:0(eng): Video: vp9 (Profile 0), yuv420p(tv, bt709), 3840x2160, SAR 1:1 DAR 16:9, 59.94 fps, 59.94 tbr, 1k tbn, 1k tbc (default)
    Side data:
      Content Light Level Metadata, MaxCLL=1100, MaxFALL=180
Stream mapping:
  Stream #0:0 -> #0:0 (vp9 (native) -> h264 (libx264))
Press [q] to stop, [?] for help
[libx264 @ 0x558e82d452c0] Application has requested 32 threads. Using a thread count greater than 16 is not recommended.
[libx264 @ 0x558e82d452c0] using SAR=1/1
[libx264 @ 0x558e82d452c0] using cpu capabilities: MMX2 SSE2Fast SSSE3 SSE4.2 AVX FMA3 BMI2 AVX2 AVX512
[libx264 @ 0x558e82d452c0] profile Constrained Baseline, level 5.2, 4:2:0, 8-bit
[libx264 @ 0x558e82d452c0] 264 - core 157 r2980 34c06d1 - H.264/MPEG-4 AVC codec - Copyleft 2003-2019 - http://www.videolan.org/x264.html - options: cabac=0 ref=1 deblock=0:0:0 analyse=0:0 me=dia subme=0 psy=0 mixed_ref=0 me_range=16 chroma_me=1 trellis=0 8x8dct=0 cqm=0 deadzone=21,11 fast_pskip=1 chroma_qp_offset=0 threads=32 lookahead_threads=5 sliced_threads=0 nr=0 decimate=1 interlaced=0 bluray_compat=0 constrained_intra=0 bframes=0 weightp=0 keyint=120 keyint_min=12 scenecut=0 intra_refresh=0 rc_lookahead=0 rc=abr mbtree=0 bitrate=100000 ratetol=1.0 qcomp=0.60 qpmin=0 qpmax=69 qpstep=4 vbv_maxrate=200000 vbv_bufsize=200000 nal_hrd=none filler=0 ip_ratio=1.40 aq=0
Output #0, mp4, to 'uhd2.mp4':
  Metadata:
    encoder         : Lavf58.29.100
    Stream #0:0(eng): Video: h264 (libx264) (avc1 / 0x31637661), yuv420p, 3840x2160 [SAR 1:1 DAR 16:9], q=-1--1, 100000 kb/s, 59.94 fps, 19001 tbn, 59.94 tbc (default)
    Metadata:
      encoder         : Lavc58.54.100 libx264
    Side data:
      cpb: bitrate max/min/avg: 200000000/0/100000000 buffer size: 200000000 vbv_delay: -1
      Content Light Level Metadata, MaxCLL=1100, MaxFALL=180
frame=   25 fps=0.0 q=0.0 size=       0kB time=00:00:00.00 bitrate=N/A speed=   0x    frame=   67 fps= 66 q=16.0 size=    6912kB time=00:00:00.55 bitrate=102839.0kbits/s speed=0.545x    frame=  109 fps= 72 q=16.0 size=   15360kB time=00:00:01.25 bitrate=100558.8kbits/s speed=0.824x    frame=  143 fps= 71 q=17.0 size=   22528kB time=00:00:01.81 bitrate=101482.6kbits/s speed=0.899x    frame=  185 fps= 73 q=18.0 size=   32512kB time=00:00:02.51 bitrate=105722.0kbits/s speed=0.995x    frame=  226 fps= 74 q=19.0 size=   41472kB time=00:00:03.20 bitrate=106060.7kbits/s speed=1.05x    frame=  258 fps= 73 q=19.0 size=   48384kB time=00:00:03.73 bitrate=106060.9kbits/s speed=1.05x    frame=  295 fps= 73 q=18.0 size=   56064kB time=00:00:04.35 bitrate=105474.1kbits/s speed=1.07x    frame=  337 fps= 74 q=18.0 size=   64512kB time=00:00:05.05 bitrate=104544.4kbits/s speed=1.11x    frame=  375 fps= 74 q=18.0 size=   71936kB time=00:00:05.68 bitrate=103584.6kbits/s speed=1.12x    frame=  414 fps= 74 q=19.0 size=   79616kB time=00:00:06.33 bitrate=102877.5kbits/s speed=1.13x    frame=  457 fps= 75 q=15.0 size=   86528kB time=00:00:07.05 bitrate=100443.2kbits/s speed=1.16x    frame=  505 fps= 76 q=13.0 size=   91136kB time=00:00:07.85 bitrate=95010.9kbits/s speed=1.19x    frame=  550 fps= 77 q=13.0 size=   96512kB time=00:00:08.60 bitrate=91840.9kbits/s speed=1.21x    frame=  596 fps= 78 q=12.0 size=  103168kB time=00:00:09.37 bitrate=90139.2kbits/s speed=1.23x    frame=  638 fps= 79 q=12.0 size=  110336kB time=00:00:10.07 bitrate=89698.5kbits/s speed=1.24x    frame=  686 fps= 79 q=12.0 size=  118784kB time=00:00:10.87 bitrate=89457.3kbits/s speed=1.26x    frame=  729 fps= 80 q=12.0 size=  126976kB time=00:00:11.59 bitrate=89710.3kbits/s speed=1.27x    frame=  756 fps= 78 q=16.0 size=  132608kB time=00:00:12.04 bitrate=90185.7kbits/s speed=1.25x    frame=  793 fps= 78 q=19.0 size=  143616kB time=00:00:12.66 bitrate=92910.9kbits/s speed=1.25x    frame=  833 fps= 78 q=17.0 size=  156928kB time=00:00:13.33 bitrate=96440.4kbits/s speed=1.25x    frame=  862 fps= 77 q=17.0 size=  164864kB time=00:00:13.81 bitrate=97769.0kbits/s speed=1.24x    frame=  900 fps= 77 q=18.0 size=  174848kB time=00:00:14.44 bitrate=99139.9kbits/s speed=1.24x    frame=  944 fps= 77 q=18.0 size=  186112kB time=00:00:15.18 bitrate=100424.3kbits/s speed=1.25x    frame=  977 fps= 77 q=18.0 size=  194816kB time=00:00:15.73 bitrate=101442.2kbits/s speed=1.24x    frame= 1009 fps= 76 q=19.0 size=  203264kB time=00:00:16.26 bitrate=102367.4kbits/s speed=1.23x    frame= 1047 fps= 76 q=19.0 size=  213248kB time=00:00:16.90 bitrate=103366.9kbits/s speed=1.23x    frame= 1086 fps= 76 q=18.0 size=  222208kB time=00:00:17.55 bitrate=103717.0kbits/s speed=1.23x    frame= 1124 fps= 76 q=18.0 size=  229376kB time=00:00:18.18 bitrate=103330.2kbits/s speed=1.23x    frame= 1165 fps= 76 q=20.0 size=  238080kB time=00:00:18.86 bitrate=103363.3kbits/s speed=1.23x    frame= 1196 fps= 76 q=20.0 size=  247040kB time=00:00:19.38 bitrate=104392.0kbits/s speed=1.23x    frame= 1230 fps= 75 q=21.0 size=  258048kB time=00:00:19.95 bitrate=105943.8kbits/s speed=1.22x    frame= 1274 fps= 76 q=21.0 size=  271872kB time=00:00:20.68 bitrate=107658.6kbits/s speed=1.23x    frame= 1305 fps= 75 q=21.0 size=  280832kB time=00:00:21.20 bitrate=108494.4kbits/s speed=1.23x    frame= 1338 fps= 75 q=22.0 size=  290048kB time=00:00:21.75 bitrate=109219.1kbits/s speed=1.22x    frame= 1371 fps= 75 q=22.0 size=  299264kB time=00:00:22.30 bitrate=109908.0kbits/s speed=1.21x    frame= 1406 fps= 75 q=22.0 size=  308224kB time=00:00:22.88 bitrate=110310.9kbits/s speed=1.21x    frame= 1445 fps= 75 q=24.0 size=  319232kB time=00:00:23.54 bitrate=111092.7kbits/s speed=1.22x    frame= 1477 fps= 74 q=23.0 size=  328448kB time=00:00:24.07 bitrate=111765.2kbits/s speed=1.21x    frame= 1519 fps= 75 q=23.0 size=  338944kB time=00:00:24.77 bitrate=112074.8kbits/s speed=1.22x    frame= 1555 fps= 74 q=24.0 size=  348160kB time=00:00:25.37 bitrate=112397.3kbits/s speed=1.22x    frame= 1581 fps= 74 q=23.0 size=  354816kB time=00:00:25.80 bitrate=112621.0kbits/s speed=1.21x    frame= 1617 fps= 74 q=23.0 size=  363520kB time=00:00:26.40 bitrate=112759.7kbits/s speed=1.21x    frame= 1655 fps= 74 q=19.0 size=  371712kB time=00:00:27.04 bitrate=112597.8kbits/s speed=1.21x    frame= 1698 fps= 74 q=19.0 size=  377856kB time=00:00:27.76 bitrate=111501.2kbits/s speed=1.21x    frame= 1744 fps= 74 q=19.0 size=  381952kB time=00:00:28.52 bitrate=109677.9kbits/s speed=1.22x    frame= 1787 fps= 75 q=17.0 size=  385280kB time=00:00:29.24 bitrate=107919.8kbits/s speed=1.22x    frame= 1830 fps= 75 q=18.0 size=  388864kB time=00:00:29.96 bitrate=106315.8kbits/s speed=1.23x    frame= 1876 fps= 75 q=16.0 size=  393984kB time=00:00:30.73 bitrate=105025.7kbits/s speed=1.23x    frame= 1921 fps= 75 q=17.0 size=  398080kB time=00:00:31.48 bitrate=103586.9kbits/s speed=1.24x    frame= 1959 fps= 75 q=17.0 size=  403200kB time=00:00:32.11 bitrate=102848.1kbits/s speed=1.24x    frame= 2005 fps= 76 q=17.0 size=  408320kB time=00:00:32.88 bitrate=101723.3kbits/s speed=1.24x    frame= 2046 fps= 76 q=20.0 size=  412928kB time=00:00:33.56 bitrate=100775.0kbits/s speed=1.24x    frame= 2072 fps= 75 q=18.0 size=  416512kB time=00:00:34.00 bitrate=100352.9kbits/s speed=1.24x    frame= 2117 fps= 76 q=18.0 size=  424960kB time=00:00:34.75 bitrate=100176.4kbits/s speed=1.24x    frame= 2151 fps= 75 q=18.0 size=  430592kB time=00:00:35.31 bitrate=99873.8kbits/s speed=1.24x    frame= 2180 fps= 75 q=18.0 size=  435712kB time=00:00:35.80 bitrate=99695.7kbits/s speed=1.23x    frame= 2213 fps= 75 q=18.0 size=  442112kB time=00:00:36.35 bitrate=99628.0kbits/s speed=1.23x    frame= 2251 fps= 75 q=18.0 size=  448512kB time=00:00:36.98 bitrate=99337.9kbits/s speed=1.23x    frame= 2288 fps= 75 q=19.0 size=  455168kB time=00:00:37.60 bitrate=99157.2kbits/s speed=1.23x    frame= 2322 fps= 75 q=18.0 size=  462592kB time=00:00:38.17 bitrate=99277.0kbits/s speed=1.23x    frame= 2362 fps= 75 q=18.0 size=  469504kB time=00:00:38.83 bitrate=99029.1kbits/s speed=1.23x    frame= 2400 fps= 75 q=18.0 size=  476416kB time=00:00:39.47 bitrate=98873.1kbits/s speed=1.23x    frame= 2428 fps= 74 q=19.0 size=  481792kB time=00:00:39.93 bitrate=98819.4kbits/s speed=1.23x    frame= 2469 fps= 75 q=20.0 size=  491776kB time=00:00:40.62 bitrate=99168.8kbits/s speed=1.23x    frame= 2505 fps= 74 q=19.0 size=  502272kB time=00:00:41.22 bitrate=99809.7kbits/s speed=1.22x    frame= 2536 fps= 74 q=19.0 size=  509952kB time=00:00:41.74 bitrate=100080.3kbits/s speed=1.22x    frame= 2570 fps= 74 q=14.0 size=  518400kB time=00:00:42.30 bitrate=100374.3kbits/s speed=1.22x    frame= 2615 fps= 74 q=14.0 size=  521472kB time=00:00:43.05 bitrate=99208.7kbits/s speed=1.22x    frame= 2657 fps= 74 q=14.0 size=  523520kB time=00:00:43.76 bitrate=98003.5kbits/s speed=1.23x    frame= 2699 fps= 75 q=14.0 size=  526080kB time=00:00:44.46 bitrate=96930.7kbits/s speed=1.23x    frame= 2741 fps= 75 q=16.0 size=  528896kB time=00:00:45.16 bitrate=95937.6kbits/s speed=1.23x    frame= 2779 fps= 75 q=15.0 size=  534528kB time=00:00:45.79 bitrate=95616.9kbits/s speed=1.23x    frame= 2820 fps= 75 q=15.0 size=  544256kB time=00:00:46.47 bitrate=95924.3kbits/s speed=1.23x    frame= 2861 fps= 75 q=16.0 size=  552960kB time=00:00:47.16 bitrate=96045.0kbits/s speed=1.23x    frame= 2899 fps= 75 q=16.0 size=  561408kB time=00:00:47.79 bitrate=96219.0kbits/s speed=1.23x    frame= 2941 fps= 75 q=16.0 size=  571136kB time=00:00:48.49 bitrate=96472.0kbits/s speed=1.24x    frame= 2980 fps= 75 q=16.0 size=  579584kB time=00:00:49.14 bitrate=96602.9kbits/s speed=1.24x    frame= 3019 fps= 75 q=16.0 size=  588032kB time=00:00:49.79 bitrate=96730.5kbits/s speed=1.24x    frame= 3061 fps= 75 q=15.0 size=  596992kB time=00:00:50.50 bitrate=96841.8kbits/s speed=1.24x    frame= 3101 fps= 75 q=15.0 size=  605440kB time=00:00:51.16 bitrate=96931.3kbits/s speed=1.24x    frame= 3140 fps= 75 q=15.0 size=  613376kB time=00:00:51.81 bitrate=96968.8kbits/s speed=1.24x    frame= 3179 fps= 75 q=15.0 size=  621312kB time=00:00:52.46 bitrate=97005.4kbits/s speed=1.24x    frame= 3218 fps= 75 q=15.0 size=  628224kB time=00:00:53.11 bitrate=96883.1kbits/s speed=1.24x    frame= 3257 fps= 75 q=15.0 size=  635136kB time=00:00:53.77 bitrate=96763.9kbits/s speed=1.24x    frame= 3296 fps= 75 q=15.0 size=  642816kB time=00:00:54.42 bitrate=96763.0kbits/s speed=1.24x    frame= 3341 fps= 75 q=15.0 size=  651264kB time=00:00:55.17 bitrate=96700.7kbits/s speed=1.24x    frame= 3374 fps= 75 q=15.0 size=  657664kB time=00:00:55.72 bitrate=96686.2kbits/s speed=1.24x    frame= 3406 fps= 75 q=16.0 size=  663552kB time=00:00:56.25 bitrate=96626.0kbits/s speed=1.24x    frame= 3448 fps= 75 q=16.0 size=  671232kB time=00:00:56.95 bitrate=96541.9kbits/s speed=1.24x    frame= 3482 fps= 75 q=16.0 size=  676864kB time=00:00:57.52 bitrate=96392.0kbits/s speed=1.24x    frame= 3514 fps= 75 q=16.0 size=  682496kB time=00:00:58.05 bitrate=96300.3kbits/s speed=1.24x    frame= 3548 fps= 75 q=16.0 size=  688896kB time=00:00:58.62 bitrate=96262.8kbits/s speed=1.24x    frame= 3582 fps= 75 q=16.0 size=  695040kB time=00:00:59.19 bitrate=96190.7kbits/s speed=1.24x    frame= 3620 fps= 75 q=16.0 size=  702208kB time=00:00:59.82 bitrate=96152.9kbits/s speed=1.24x    frame= 3654 fps= 75 q=16.0 size=  709120kB time=00:01:00.39 bitrate=96187.3kbits/s speed=1.24x    frame= 3690 fps= 75 q=15.0 size=  715264kB time=00:01:00.99 bitrate=96065.4kbits/s speed=1.23x    frame= 3733 fps= 75 q=15.0 size=  722688kB time=00:01:01.71 bitrate=95934.2kbits/s speed=1.24x    frame= 3766 fps= 75 q=14.0 size=  728320kB time=00:01:02.26 bitrate=95826.9kbits/s speed=1.23x    frame= 3807 fps= 75 q=13.0 size=  733952kB time=00:01:02.94 bitrate=95518.5kbits/s speed=1.24x    frame= 3853 fps= 75 q=13.0 size=  740608kB time=00:01:03.71 bitrate=95223.8kbits/s speed=1.24x    frame= 3893 fps= 75 q=12.0 size=  747008kB time=00:01:04.38 bitrate=95051.1kbits/s speed=1.24x    frame= 3937 fps= 75 q=14.0 size=  753920kB time=00:01:05.11 bitrate=94849.2kbits/s speed=1.24x    frame= 3972 fps= 75 q=14.0 size=  759808kB time=00:01:05.69 bitrate=94740.3kbits/s speed=1.24x    frame= 4004 fps= 75 q=13.0 size=  765696kB time=00:01:06.23 bitrate=94705.0kbits/s speed=1.24x    frame= 4041 fps= 75 q=15.0 size=  771840kB time=00:01:06.85 bitrate=94583.4kbits/s speed=1.24x    frame= 4079 fps= 75 q=15.0 size=  781312kB time=00:01:07.48 bitrate=94844.6kbits/s speed=1.24x    frame= 4111 fps= 75 q=15.0 size=  790016kB time=00:01:08.01 bitrate=95148.5kbits/s speed=1.24x    frame= 4151 fps= 75 q=15.0 size=  801024kB time=00:01:08.68 bitrate=95537.0kbits/s speed=1.24x    frame= 4188 fps= 75 q=15.0 size=  810496kB time=00:01:09.30 bitrate=95805.7kbits/s speed=1.24x    frame= 4216 fps= 75 q=16.0 size=  817920kB time=00:01:09.76 bitrate=96035.9kbits/s speed=1.23x    frame= 4249 fps= 74 q=15.0 size=  826624kB time=00:01:10.32 bitrate=96298.0kbits/s speed=1.23x    frame= 4293 fps= 75 q=15.0 size=  837888kB time=00:01:11.05 bitrate=96601.8kbits/s speed=1.23x    frame= 4328 fps= 74 q=16.0 size=  846080kB time=00:01:11.63 bitrate=96751.2kbits/s speed=1.23x    frame= 4355 fps= 74 q=16.0 size=  853504kB time=00:01:12.08 bitrate=96990.3kbits/s speed=1.23x    frame= 4400 fps= 74 q=16.0 size=  862720kB time=00:01:12.83 bitrate=97027.1kbits/s speed=1.23x    frame= 4433 fps= 74 q=16.0 size=  870656kB time=00:01:13.39 bitrate=97185.1kbits/s speed=1.23x    frame= 4463 fps= 74 q=16.0 size=  877568kB time=00:01:13.89 bitrate=97293.1kbits/s speed=1.23x    frame= 4497 fps= 74 q=16.0 size=  886528kB time=00:01:14.45 bitrate=97537.7kbits/s speed=1.23x    frame= 4539 fps= 74 q=16.0 size=  897536kB time=00:01:15.15 bitrate=97828.2kbits/s speed=1.23x    frame= 4570 fps= 74 q=16.0 size=  905472kB time=00:01:15.67 bitrate=98018.7kbits/s speed=1.23x    frame= 4598 fps= 74 q=17.0 size=  913664kB time=00:01:16.14 bitrate=98298.7kbits/s speed=1.22x    frame= 4638 fps= 74 q=14.0 size=  923392kB time=00:01:16.81 bitrate=98482.2kbits/s speed=1.23x    frame= 4681 fps= 74 q=13.0 size=  927744kB time=00:01:17.52 bitrate=98030.8kbits/s speed=1.23x    frame= 4724 fps= 74 q=14.0 size=  933376kB time=00:01:18.24 bitrate=97721.6kbits/s speed=1.23x    frame= 4766 fps= 74 q=13.0 size=  938240kB time=00:01:18.94 bitrate=97359.0kbits/s speed=1.23x    frame= 4808 fps= 74 q=13.0 size=  943616kB time=00:01:19.64 bitrate=97055.4kbits/s speed=1.23x    frame= 4853 fps= 74 q=13.0 size=  950016kB time=00:01:20.39 bitrate=96801.2kbits/s speed=1.23x    frame= 4895 fps= 74 q=11.0 size=  955904kB time=00:01:21.09 bitrate=96559.6kbits/s speed=1.23x    frame= 4938 fps= 74 q=12.0 size=  963328kB time=00:01:21.81 bitrate=96456.3kbits/s speed=1.23x    frame= 4982 fps= 75 q=11.0 size=  972032kB time=00:01:22.54 bitrate=96462.3kbits/s speed=1.24x    frame= 5019 fps= 75 q=12.0 size=  978432kB time=00:01:23.16 bitrate=96376.8kbits/s speed=1.24x    frame= 5059 fps= 75 q=13.0 size=  985344kB time=00:01:23.83 bitrate=96285.0kbits/s speed=1.24x    frame= 5103 fps= 75 q=13.0 size=  994048kB time=00:01:24.56 bitrate=96292.4kbits/s speed=1.24x    frame= 5140 fps= 75 q=14.0 size= 1000960kB time=00:01:25.18 bitrate=96259.3kbits/s speed=1.24x    frame= 5176 fps= 75 q=13.0 size= 1006336kB time=00:01:25.78 bitrate=96098.8kbits/s speed=1.24x    frame= 5207 fps= 75 q=14.0 size= 1011968kB time=00:01:26.30 bitrate=96057.5kbits/s speed=1.24x    frame= 5241 fps= 74 q=15.0 size= 1018624kB time=00:01:26.87 bitrate=96057.9kbits/s speed=1.23x    frame= 5278 fps= 74 q=15.0 size= 1027072kB time=00:01:27.48 bitrate=96171.2kbits/s speed=1.23x    frame= 5311 fps= 74 q=16.0 size= 1035520kB time=00:01:28.03 bitrate=96355.9kbits/s speed=1.23x    frame= 5347 fps= 74 q=15.0 size= 1045248kB time=00:01:28.63 bitrate=96602.1kbits/s speed=1.23x    frame= 5384 fps= 74 q=14.0 size= 1053696kB time=00:01:29.25 bitrate=96709.3kbits/s speed=1.23x    frame= 5417 fps= 74 q=15.0 size= 1060352kB time=00:01:29.80 bitrate=96723.6kbits/s speed=1.23x    frame= 5454 fps= 74 q=15.0 size= 1068800kB time=00:01:30.42 bitrate=96828.7kbits/s speed=1.23x    frame= 5499 fps= 74 q=14.0 size= 1078272kB time=00:01:31.17 bitrate=96882.4kbits/s speed=1.23x    frame= 5533 fps= 74 q=17.0 size= 1086720kB time=00:01:31.74 bitrate=97037.8kbits/s speed=1.23x    frame= 5561 fps= 74 q=17.0 size= 1099264kB time=00:01:32.20 bitrate=97660.6kbits/s speed=1.23x    frame= 5597 fps= 74 q=18.0 size= 1114624kB time=00:01:32.80 bitrate=98384.4kbits/s speed=1.23x    frame= 5635 fps= 74 q=19.0 size= 1129216kB time=00:01:33.44 bitrate=98996.2kbits/s speed=1.23x    frame= 5664 fps= 74 q=19.0 size= 1139456kB time=00:01:33.92 bitrate=99379.3kbits/s speed=1.23x    frame= 5697 fps= 74 q=19.0 size= 1152512kB time=00:01:34.47 bitrate=99932.3kbits/s speed=1.23x    frame= 5743 fps= 74 q=19.0 size= 1168384kB time=00:01:35.24 bitrate=100492.2kbits/s speed=1.23x    frame= 5769 fps= 74 q=19.0 size= 1176320kB time=00:01:35.67 bitrate=100716.1kbits/s speed=1.23x    frame= 5797 fps= 74 q=20.0 size= 1186560kB time=00:01:36.14 bitrate=101099.3kbits/s speed=1.22x    frame= 5840 fps= 74 q=19.0 size= 1199616kB time=00:01:36.86 bitrate=101454.7kbits/s speed=1.22x    frame= 5871 fps= 74 q=19.0 size= 1208576kB time=00:01:37.38 bitrate=101669.6kbits/s speed=1.22x    frame= 5896 fps= 74 q=18.0 size= 1214976kB time=00:01:37.79 bitrate=101772.1kbits/s speed=1.22x    frame= 5934 fps= 74 q=18.0 size= 1224704kB time=00:01:38.43 bitrate=101926.3kbits/s speed=1.22x    frame= 5980 fps= 74 q=16.0 size= 1233664kB time=00:01:39.19 bitrate=101877.6kbits/s speed=1.22x    frame= 6013 fps= 74 q=16.0 size= 1238784kB time=00:01:39.74 bitrate=101735.8kbits/s speed=1.22x    frame= 6049 fps= 74 q=16.0 size= 1244160kB time=00:01:40.35 bitrate=101565.8kbits/s speed=1.22x    frame= 6086 fps= 74 q=16.0 size= 1250048kB time=00:01:40.96 bitrate=101422.6kbits/s speed=1.22x    frame= 6129 fps= 74 q=16.0 size= 1257216kB time=00:01:41.68 bitrate=101284.5kbits/s speed=1.22x    frame= 6161 fps= 74 q=16.0 size= 1263104kB time=00:01:42.21 bitrate=101227.4kbits/s speed=1.22x    frame= 6209 fps= 74 q=16.0 size= 1270528kB time=00:01:43.01 bitrate=101030.9kbits/s speed=1.22x    frame= 6247 fps= 74 q=16.0 size= 1276416kB time=00:01:43.65 bitrate=100878.3kbits/s speed=1.22x    frame= 6277 fps= 74 q=16.0 size= 1282048kB time=00:01:44.15 bitrate=100836.5kbits/s speed=1.22x    frame= 6315 fps= 74 q=16.0 size= 1288448kB time=00:01:44.78 bitrate=100726.8kbits/s speed=1.22x    frame= 6350 fps= 74 q=16.0 size= 1294592kB time=00:01:45.37 bitrate=100646.3kbits/s speed=1.22x    frame= 6389 fps= 74 q=16.0 size= 1301248kB time=00:01:46.02 bitrate=100542.9kbits/s speed=1.22x    frame= 6428 fps= 74 q=15.0 size= 1308672kB time=00:01:46.67 bitrate=100499.8kbits/s speed=1.22x    frame= 6468 fps= 74 q=19.0 size= 1316864kB time=00:01:47.34 bitrate=100500.2kbits/s speed=1.22x    frame= 6497 fps= 74 q=19.0 size= 1324800kB time=00:01:47.82 bitrate=100652.2kbits/s speed=1.22x    frame= 6531 fps= 74 q=20.0 size= 1336576kB time=00:01:48.39 bitrate=101015.4kbits/s speed=1.22x    frame= 6571 fps= 74 q=20.0 size= 1348864kB time=00:01:49.05 bitrate=101320.3kbits/s speed=1.22x    frame= 6605 fps= 74 q=23.0 size= 1360640kB time=00:01:49.62 bitrate=101676.1kbits/s speed=1.22x    frame= 6629 fps= 73 q=21.0 size= 1369600kB time=00:01:50.02 bitrate=101973.2kbits/s speed=1.22x    frame= 6667 fps= 73 q=21.0 size= 1384960kB time=00:01:50.66 bitrate=102526.0kbits/s speed=1.22x    frame= 6704 fps= 73 q=22.0 size= 1398528kB time=00:01:51.27 bitrate=102956.1kbits/s speed=1.22x    frame= 6733 fps= 73 q=18.0 size= 1409536kB time=00:01:51.76 bitrate=103317.3kbits/s speed=1.22x    frame= 6767 fps= 73 q=16.0 size= 1421824kB time=00:01:52.32 bitrate=103691.7kbits/s speed=1.22x    frame= 6807 fps= 73 q=15.0 size= 1429760kB time=00:01:52.99 bitrate=103654.7kbits/s speed=1.22x    frame= 6850 fps= 73 q=18.0 size= 1437184kB time=00:01:53.71 bitrate=103535.6kbits/s speed=1.22x    frame= 6901 fps= 73 q=16.0 size= 1446656kB time=00:01:54.56 bitrate=103444.0kbits/s speed=1.22x    frame= 6939 fps= 74 q=16.0 size= 1452800kB time=00:01:55.19 bitrate=103311.6kbits/s speed=1.22x    frame= 6979 fps= 74 q=17.0 size= 1458944kB time=00:01:55.86 bitrate=103151.0kbits/s speed=1.22x    frame= 7021 fps= 74 q=16.0 size= 1466112kB time=00:01:56.56 bitrate=103034.7kbits/s speed=1.22x    frame= 7058 fps= 74 q=18.0 size= 1472000kB time=00:01:57.18 bitrate=102903.5kbits/s speed=1.22x    frame= 7097 fps= 74 q=15.0 size= 1479424kB time=00:01:57.83 bitrate=102851.4kbits/s speed=1.22x    frame= 7142 fps= 74 q=14.0 size= 1487360kB time=00:01:58.58 bitrate=102748.5kbits/s speed=1.22x    frame= 7187 fps= 74 q=14.0 size= 1493248kB time=00:01:59.33 bitrate=102506.3kbits/s speed=1.22x    frame= 7232 fps= 74 q=13.0 size= 1498880kB time=00:02:00.08 bitrate=102249.7kbits/s speed=1.23x    frame= 7277 fps= 74 q=14.0 size= 1504768kB time=00:02:00.83 bitrate=102013.6kbits/s speed=1.23x    frame= 7325 fps= 74 q=17.0 size= 1510912kB time=00:02:01.63 bitrate=101755.8kbits/s speed=1.23x    frame= 7370 fps= 74 q=16.0 size= 1516288kB time=00:02:02.38 bitrate=101491.4kbits/s speed=1.23x    frame= 7416 fps= 74 q=13.0 size= 1521408kB time=00:02:03.15 bitrate=101199.6kbits/s speed=1.23x    frame= 7456 fps= 74 q=13.0 size= 1525760kB time=00:02:03.82 bitrate=100942.1kbits/s speed=1.23x    frame= 7503 fps= 74 q=14.0 size= 1530880kB time=00:02:04.60 bitrate=100643.5kbits/s speed=1.23x    frame= 7549 fps= 74 q=12.0 size= 1535744kB time=00:02:05.37 bitrate=100345.2kbits/s speed=1.24x    frame= 7597 fps= 74 q=10.0 size= 1541120kB time=00:02:06.17 bitrate=100057.4kbits/s speed=1.24x    frame= 7645 fps= 75 q=12.0 size= 1545728kB time=00:02:06.97 bitrate=99723.7kbits/s speed=1.24x    frame= 7688 fps= 75 q=16.0 size= 1550080kB time=00:02:07.69 bitrate=99442.6kbits/s speed=1.24x    frame= 7729 fps= 75 q=14.0 size= 1556480kB time=00:02:08.37 bitrate=99321.2kbits/s speed=1.24x    frame= 7774 fps= 75 q=17.0 size= 1563392kB time=00:02:09.12 bitrate=99182.2kbits/s speed=1.24x    frame= 7807 fps= 75 q=19.0 size= 1569280kB time=00:02:09.67 bitrate=99133.1kbits/s speed=1.24x    frame= 7834 fps= 75 q=18.0 size= 1576704kB time=00:02:10.13 bitrate=99257.3kbits/s speed=1.24x    frame= 7873 fps= 75 q=16.0 size= 1586176kB time=00:02:10.78 bitrate=99356.8kbits/s speed=1.24x    frame= 7917 fps= 75 q=16.0 size= 1594880kB time=00:02:11.51 bitrate=99344.4kbits/s speed=1.24x    frame= 7949 fps= 75 q=16.0 size= 1601280kB time=00:02:12.04 bitrate=99339.8kbits/s speed=1.24x    frame= 7992 fps= 75 q=16.0 size= 1610240kB time=00:02:12.76 bitrate=99355.9kbits/s speed=1.24x    frame= 8035 fps= 75 q=17.0 size= 1618432kB time=00:02:13.48 bitrate=99324.7kbits/s speed=1.24x    frame= 8066 fps= 75 q=17.0 size= 1625600kB time=00:02:14.00 bitrate=99379.5kbits/s speed=1.24x    frame= 8110 fps= 75 q=18.0 size= 1636864kB time=00:02:14.73 bitrate=99523.0kbits/s speed=1.24x    frame= 8143 fps= 75 q=19.0 size= 1645824kB time=00:02:15.28 bitrate=99660.5kbits/s speed=1.24x    frame= 8172 fps= 74 q=19.0 size= 1654528kB time=00:02:15.76 bitrate=99830.5kbits/s speed=1.24x    frame= 8208 fps= 74 q=20.0 size= 1666560kB time=00:02:16.36 bitrate=100113.7kbits/s speed=1.24x    frame= 8242 fps= 74 q=21.0 size= 1678080kB time=00:02:16.93 bitrate=100388.1kbits/s speed=1.24x    frame= 8279 fps= 74 q=21.0 size= 1695232kB time=00:02:17.55 bitrate=100959.1kbits/s speed=1.24x    frame= 8304 fps= 74 q=22.0 size= 1707520kB time=00:02:17.97 bitrate=101383.5kbits/s speed=1.23x    frame= 8335 fps= 74 q=22.0 size= 1723392kB time=00:02:18.48 bitrate=101943.8kbits/s speed=1.23x    frame= 8368 fps= 74 q=23.0 size= 1739776kB time=00:02:19.03 bitrate=102505.4kbits/s speed=1.23x    frame= 8410 fps= 74 q=24.0 size= 1758464kB time=00:02:19.73 bitrate=103087.0kbits/s speed=1.23x    frame= 8436 fps= 74 q=25.0 size= 1769984kB time=00:02:20.17 bitrate=103441.2kbits/s speed=1.23x    frame= 8470 fps= 74 q=23.0 size= 1783296kB time=00:02:20.74 bitrate=103799.2kbits/s speed=1.23x    frame= 8509 fps= 74 q=17.0 size= 1799168kB time=00:02:21.39 bitrate=104241.1kbits/s speed=1.23x    frame= 8543 fps= 74 q=17.0 size= 1808128kB time=00:02:21.95 bitrate=104341.6kbits/s speed=1.23x    frame= 8581 fps= 74 q=16.0 size= 1811968kB time=00:02:22.59 bitrate=104098.3kbits/s speed=1.23x    frame= 8629 fps= 74 q=16.0 size= 1816832kB time=00:02:23.39 bitrate=103794.9kbits/s speed=1.23x    frame= 8669 fps= 74 q=16.0 size= 1820672kB time=00:02:24.06 bitrate=103532.4kbits/s speed=1.23x    frame= 8722 fps= 74 q=16.0 size= 1826304kB time=00:02:24.94 bitrate=103219.1kbits/s speed=1.24x    frame= 8761 fps= 74 q=16.0 size= 1830400kB time=00:02:25.59 bitrate=102988.3kbits/s speed=1.24x    frame= 8802 fps= 74 q=18.0 size= 1835520kB time=00:02:26.27 bitrate=102793.5kbits/s speed=1.24x    frame= 8839 fps= 74 q=19.0 size= 1840896kB time=00:02:26.89 bitrate=102661.3kbits/s speed=1.24x    frame= 8875 fps= 74 q=19.0 size= 1846272kB time=00:02:27.49 bitrate=102541.9kbits/s speed=1.24x    frame= 8902 fps= 74 q=19.0 size= 1850624kB time=00:02:27.94 bitrate=102470.7kbits/s speed=1.23x    frame= 8938 fps= 74 q=19.0 size= 1856768kB time=00:02:28.54 bitrate=102395.2kbits/s speed=1.23x    frame= 8974 fps= 74 q=19.0 size= 1862400kB time=00:02:29.14 bitrate=102292.2kbits/s speed=1.23x    frame= 9007 fps= 74 q=19.0 size= 1867520kB time=00:02:29.69 bitrate=102196.2kbits/s speed=1.23x    frame= 9043 fps= 74 q=21.0 size= 1873408kB time=00:02:30.30 bitrate=102108.7kbits/s speed=1.23x    frame= 9079 fps= 74 q=17.0 size= 1879040kB time=00:02:30.90 bitrate=102008.1kbits/s speed=1.23x    frame= 9120 fps= 74 q=16.0 size= 1883136kB time=00:02:31.58 bitrate=101769.1kbits/s speed=1.23x    frame= 9155 fps= 74 q=18.0 size= 1887488kB time=00:02:32.16 bitrate=101612.9kbits/s speed=1.23x    frame= 9197 fps= 74 q=17.0 size= 1892096kB time=00:02:32.86 bitrate=101394.1kbits/s speed=1.23x    frame= 9239 fps= 74 q=17.0 size= 1896448kB time=00:02:33.57 bitrate=101163.6kbits/s speed=1.23x    frame= 9267 fps= 74 q=18.0 size= 1899776kB time=00:02:34.03 bitrate=101033.8kbits/s speed=1.23x    frame= 9304 fps= 74 q=17.0 size= 1906176kB time=00:02:34.65 bitrate=100969.5kbits/s speed=1.23x    frame= 9343 fps= 74 q=17.0 size= 1913088kB time=00:02:35.30 bitrate=100911.1kbits/s speed=1.23x    frame= 9383 fps= 74 q=17.0 size= 1919488kB time=00:02:35.97 bitrate=100815.5kbits/s speed=1.23x    frame= 9426 fps= 74 q=16.0 size= 1927424kB time=00:02:36.68 bitrate=100768.8kbits/s speed=1.23x    frame= 9465 fps= 74 q=17.0 size= 1934336kB time=00:02:37.34 bitrate=100712.0kbits/s speed=1.23x    frame= 9496 fps= 74 q=18.0 size= 1939712kB time=00:02:37.85 bitrate=100661.0kbits/s speed=1.23x    frame= 9535 fps= 74 q=17.0 size= 1947392kB time=00:02:38.50 bitrate=100644.7kbits/s speed=1.23x    frame= 9579 fps= 74 q=17.0 size= 1955584kB time=00:02:39.24 bitrate=100602.2kbits/s speed=1.23x    frame= 9610 fps= 74 q=17.0 size= 1960960kB time=00:02:39.75 bitrate=100552.2kbits/s speed=1.23x    frame= 9651 fps= 74 q=17.0 size= 1967872kB time=00:02:40.44 bitrate=100476.4kbits/s speed=1.23x    frame= 9690 fps= 74 q=16.0 size= 1973760kB time=00:02:41.09 bitrate=100370.0kbits/s speed=1.23x    frame= 9729 fps= 74 q=17.0 size= 1979904kB time=00:02:41.74 bitrate=100277.5kbits/s speed=1.23x    frame= 9764 fps= 74 q=20.0 size= 1986048kB time=00:02:42.32 bitrate=100226.8kbits/s speed=1.23x    frame= 9806 fps= 74 q=20.0 size= 1998336kB time=00:02:43.02 bitrate=100413.5kbits/s speed=1.23x    frame= 9838 fps= 74 q=19.0 size= 2007808kB time=00:02:43.56 bitrate=100560.1kbits/s speed=1.23x    frame= 9866 fps= 74 q=20.0 size= 2015488kB time=00:02:44.03 bitrate=100657.3kbits/s speed=1.23x    frame= 9899 fps= 74 q=20.0 size= 2025216kB time=00:02:44.58 bitrate=100804.8kbits/s speed=1.23x    frame= 9932 fps= 74 q=20.0 size= 2034432kB time=00:02:45.13 bitrate=100925.9kbits/s speed=1.23x    frame= 9968 fps= 74 q=20.0 size= 2044672kB time=00:02:45.73 bitrate=101066.3kbits/s speed=1.23x    frame= 9997 fps= 74 q=21.0 size= 2054400kB time=00:02:46.21 bitrate=101251.6kbits/s speed=1.23x    frame=10041 fps= 74 q=17.0 size= 2067456kB time=00:02:46.95 bitrate=101447.0kbits/s speed=1.23x    frame=10078 fps= 74 q=16.0 size= 2076928kB time=00:02:47.56 bitrate=101536.4kbits/s speed=1.23x    frame=10109 fps= 74 q=16.0 size= 2080512kB time=00:02:48.08 bitrate=101398.7kbits/s speed=1.23x    frame=10154 fps= 74 q=16.0 size= 2086144kB time=00:02:48.83 bitrate=101221.0kbits/s speed=1.23x    frame=10193 fps= 74 q=17.0 size= 2090752kB time=00:02:49.48 bitrate=101055.2kbits/s speed=1.23x    frame=10236 fps= 74 q=16.0 size= 2096640kB time=00:02:50.20 bitrate=100912.6kbits/s speed=1.23x    frame=10277 fps= 74 q=16.0 size= 2101760kB time=00:02:50.88 bitrate=100754.2kbits/s speed=1.23x    frame=10325 fps= 74 q=17.0 size= 2107904kB time=00:02:51.68 bitrate=100577.4kbits/s speed=1.23x    frame=10363 fps= 74 q=15.0 size= 2113536kB time=00:02:52.32 bitrate=100475.1kbits/s speed=1.23x    frame=10408 fps= 74 q=16.0 size= 2119168kB time=00:02:53.07 bitrate=100305.8kbits/s speed=1.23x    frame=10447 fps= 74 q=16.0 size= 2124288kB time=00:02:53.72 bitrate=100171.6kbits/s speed=1.23x    frame=10481 fps= 74 q=16.0 size= 2129152kB time=00:02:54.29 bitrate=100074.2kbits/s speed=1.23x    frame=10517 fps= 74 q=15.0 size= 2133504kB time=00:02:54.89 bitrate=99934.4kbits/s speed=1.23x    frame=10560 fps= 74 q=15.0 size= 2137856kB time=00:02:55.60 bitrate=99729.1kbits/s speed=1.23x    frame=10595 fps= 74 q=15.0 size= 2142464kB time=00:02:56.19 bitrate=99612.9kbits/s speed=1.23x    frame=10635 fps= 74 q=15.0 size= 2146048kB time=00:02:56.86 bitrate=99403.0kbits/s speed=1.23x    frame=10679 fps= 74 q=16.0 size= 2150912kB time=00:02:57.59 bitrate=99216.5kbits/s speed=1.23x    frame=10707 fps= 74 q=15.0 size= 2155264kB time=00:02:58.06 bitrate=99156.5kbits/s speed=1.23x    frame=10748 fps= 74 q=13.0 size= 2161152kB time=00:02:58.74 bitrate=99046.9kbits/s speed=1.23x    frame=10790 fps= 74 q=14.0 size= 2167040kB time=00:02:59.44 bitrate=98928.9kbits/s speed=1.23x    frame=10828 fps= 74 q=14.0 size= 2171392kB time=00:03:00.07 bitrate=98778.6kbits/s speed=1.23x    frame=10870 fps= 74 q=14.0 size= 2176512kB time=00:03:00.78 bitrate=98627.7kbits/s speed=1.23x    frame=10916 fps= 74 q=14.0 size= 2182144kB time=00:03:01.54 bitrate=98465.0kbits/s speed=1.24x    frame=10951 fps= 74 q=13.0 size= 2186752kB time=00:03:02.13 bitrate=98356.5kbits/s speed=1.24x    frame=10998 fps= 74 q=13.0 size= 2192128kB time=00:03:02.91 bitrate=98175.7kbits/s speed=1.24x    frame=11042 fps= 74 q=20.0 size= 2197504kB time=00:03:03.65 bitrate=98023.1kbits/s speed=1.24x    frame=11069 fps= 74 q=21.0 size= 2208768kB time=00:03:04.10 bitrate=98284.4kbits/s speed=1.24x    frame=11107 fps= 74 q=24.0 size= 2232832kB time=00:03:04.73 bitrate=99014.3kbits/s speed=1.24x    frame=11132 fps= 74 q=25.0 size= 2246144kB time=00:03:05.15 bitrate=99380.2kbits/s speed=1.23x    frame=11163 fps= 74 q=22.0 size= 2259456kB time=00:03:05.66 bitrate=99690.7kbits/s speed=1.23x    frame=11196 fps= 74 q=25.0 size= 2273792kB time=00:03:06.21 bitrate=100026.7kbits/s speed=1.23x    frame=11230 fps= 74 q=24.0 size= 2286080kB time=00:03:06.78 bitrate=100261.8kbits/s speed=1.23x    frame=11259 fps= 74 q=24.0 size= 2297344kB time=00:03:07.27 bitrate=100495.5kbits/s speed=1.23x    frame=11290 fps= 74 q=25.0 size= 2309632kB time=00:03:07.78 bitrate=100754.8kbits/s speed=1.23x    frame=11318 fps= 74 q=23.0 size= 2321152kB time=00:03:08.25 bitrate=101006.1kbits/s speed=1.23x    frame=11362 fps= 74 q=19.0 size= 2337024kB time=00:03:08.98 bitrate=101301.8kbits/s speed=1.23x    frame=11399 fps= 74 q=20.0 size= 2350592kB time=00:03:09.60 bitrate=101558.2kbits/s speed=1.23x    frame=11424 fps= 74 q=21.0 size= 2359808kB time=00:03:10.02 bitrate=101732.6kbits/s speed=1.23x    frame=11457 fps= 74 q=21.0 size= 2372864kB time=00:03:10.57 bitrate=101999.9kbits/s speed=1.23x    frame=11500 fps= 74 q=21.0 size= 2387712kB time=00:03:11.29 bitrate=102253.2kbits/s speed=1.23x    frame=11533 fps= 74 q=21.0 size= 2398976kB time=00:03:11.84 bitrate=102440.8kbits/s speed=1.23x    frame=11564 fps= 74 q=21.0 size= 2410496kB time=00:03:12.35 bitrate=102656.0kbits/s speed=1.23x    frame=11600 fps= 74 q=22.0 size= 2423040kB time=00:03:12.95 bitrate=102869.0kbits/s speed=1.23x    frame=11636 fps= 74 q=21.0 size= 2435584kB time=00:03:13.56 bitrate=103080.7kbits/s speed=1.23x    frame=11666 fps= 74 q=21.0 size= 2445824kB time=00:03:14.06 bitrate=103247.1kbits/s speed=1.23x    frame=11702 fps= 74 q=20.0 size= 2458112kB time=00:03:14.66 bitrate=103445.7kbits/s speed=1.23x    frame=11743 fps= 74 q=21.0 size= 2469632kB time=00:03:15.34 bitrate=103566.5kbits/s speed=1.23x    frame=11776 fps= 74 q=22.0 size= 2479104kB time=00:03:15.89 bitrate=103671.6kbits/s speed=1.23x    frame=11808 fps= 74 q=22.0 size= 2488832kB time=00:03:16.42 bitrate=103795.5kbits/s speed=1.23x    frame=11843 fps= 74 q=22.0 size= 2498816kB time=00:03:17.01 bitrate=103903.0kbits/s speed=1.23x    frame=11881 fps= 74 q=22.0 size= 2509824kB time=00:03:17.64 bitrate=104026.0kbits/s speed=1.23x    frame=11925 fps= 74 q=21.0 size= 2522624kB time=00:03:18.38 bitrate=104169.6kbits/s speed=1.23x    frame=11962 fps= 74 q=21.0 size= 2532096kB time=00:03:18.99 bitrate=104236.4kbits/s speed=1.23x    frame=11996 fps= 74 q=21.0 size= 2541312kB time=00:03:19.56 bitrate=104318.5kbits/s speed=1.23x    frame=12029 fps= 74 q=22.0 size= 2549760kB time=00:03:20.11 bitrate=104377.3kbits/s speed=1.23x    frame=12061 fps= 74 q=22.0 size= 2558464kB time=00:03:20.65 bitrate=104455.0kbits/s speed=1.22x    frame=12096 fps= 74 q=22.0 size= 2567424kB time=00:03:21.23 bitrate=104516.6kbits/s speed=1.22x    frame=12133 fps= 74 q=20.0 size= 2577152kB time=00:03:21.85 bitrate=104591.8kbits/s speed=1.22x    frame=12170 fps= 74 q=19.0 size= 2585088kB time=00:03:22.46 bitrate=104594.0kbits/s speed=1.22x    frame=12208 fps= 74 q=19.0 size= 2588160kB time=00:03:23.10 bitrate=104391.4kbits/s speed=1.22x    frame=12247 fps= 74 q=19.0 size= 2591744kB time=00:03:23.75 bitrate=104202.2kbits/s speed=1.22x    frame=12283 fps= 74 q=19.0 size= 2595328kB time=00:03:24.35 bitrate=104039.6kbits/s speed=1.22x    frame=12323 fps= 74 q=19.0 size= 2599168kB time=00:03:25.02 bitrate=103854.4kbits/s speed=1.22x    frame=12360 fps= 74 q=18.0 size= 2602752kB time=00:03:25.63 bitrate=103685.4kbits/s speed=1.22x    frame=12398 fps= 74 q=18.0 size= 2606848kB time=00:03:26.27 bitrate=103529.4kbits/s speed=1.22x    frame=12437 fps= 74 q=18.0 size= 2610176kB time=00:03:26.92 bitrate=103335.6kbits/s speed=1.22x    frame=12484 fps= 74 q=21.0 size= 2616064kB time=00:03:27.70 bitrate=103177.7kbits/s speed=1.23x    frame=12517 fps= 74 q=18.0 size= 2620160kB time=00:03:28.25 bitrate=103066.1kbits/s speed=1.23x    frame=12559 fps= 74 q=18.0 size= 2625024kB time=00:03:28.95 bitrate=102911.2kbits/s speed=1.23x    frame=12598 fps= 74 q=17.0 size= 2629632kB time=00:03:29.60 bitrate=102771.8kbits/s speed=1.23x    frame=12639 fps= 74 q=17.0 size= 2634752kB time=00:03:30.29 bitrate=102637.0kbits/s speed=1.23x    frame=12683 fps= 74 q=21.0 size= 2640640kB time=00:03:31.02 bitrate=102508.5kbits/s speed=1.23x    frame=12714 fps= 74 q=21.0 size= 2648832kB time=00:03:31.54 bitrate=102575.2kbits/s speed=1.23x    frame=12740 fps= 74 q=21.0 size= 2655744kB time=00:03:31.97 bitrate=102632.4kbits/s speed=1.22x    frame=12779 fps= 74 q=21.0 size= 2665216kB time=00:03:32.62 bitrate=102683.3kbits/s speed=1.22x    frame=12816 fps= 74 q=21.0 size= 2672640kB time=00:03:33.24 bitrate=102671.2kbits/s speed=1.22x    frame=12849 fps= 74 q=21.0 size= 2678528kB time=00:03:33.79 bitrate=102632.4kbits/s speed=1.22x    frame=12884 fps= 74 q=20.0 size= 2685440kB time=00:03:34.38 bitrate=102617.0kbits/s speed=1.22x    frame=12922 fps= 74 q=20.0 size= 2692352kB time=00:03:35.01 bitrate=102577.8kbits/s speed=1.22x    frame=12955 fps= 74 q=20.0 size= 2698240kB time=00:03:35.56 bitrate=102539.6kbits/s speed=1.22x    frame=12982 fps= 73 q=20.0 size= 2703104kB time=00:03:36.01 bitrate=102510.2kbits/s speed=1.22x    frame=13015 fps= 73 q=20.0 size= 2709504kB time=00:03:36.56 bitrate=102491.7kbits/s speed=1.22x    frame=13050 fps= 73 q=20.0 size= 2715904kB time=00:03:37.15 bitrate=102457.5kbits/s speed=1.22x    frame=13086 fps= 73 q=21.0 size= 2722048kB time=00:03:37.75 bitrate=102406.1kbits/s speed=1.22x    frame=13122 fps= 73 q=19.0 size= 2728704kB time=00:03:38.35 bitrate=102374.1kbits/s speed=1.22x    frame=13163 fps= 73 q=19.0 size= 2734848kB time=00:03:39.03 bitrate=102284.2kbits/s speed=1.22x    frame=13197 fps= 73 q=20.0 size= 2740224kB time=00:03:39.60 bitrate=102220.6kbits/s speed=1.22x    frame=13226 fps= 73 q=19.0 size= 2744576kB time=00:03:40.08 bitrate=102157.8kbits/s speed=1.22x    frame=13263 fps= 73 q=20.0 size= 2751232kB time=00:03:40.70 bitrate=102119.2kbits/s speed=1.22x    frame=13299 fps= 73 q=20.0 size= 2757120kB time=00:03:41.30 bitrate=102060.0kbits/s speed=1.22x    frame=13332 fps= 73 q=19.0 size= 2762240kB time=00:03:41.85 bitrate=101995.8kbits/s speed=1.22x    frame=13362 fps= 73 q=19.0 size= 2767616kB time=00:03:42.35 bitrate=101964.2kbits/s speed=1.22x    frame=13401 fps= 73 q=16.0 size= 2773248kB time=00:03:43.00 bitrate=101873.6kbits/s speed=1.22x    frame=13443 fps= 73 q=14.0 size= 2780416kB time=00:03:43.70 bitrate=101817.0kbits/s speed=1.22x    frame=13486 fps= 73 q=17.0 size= 2787840kB time=00:03:44.42 bitrate=101762.6kbits/s speed=1.22x    frame=13530 fps= 73 q=18.0 size= 2795264kB time=00:03:45.15 bitrate=101700.9kbits/s speed=1.22x    frame=13567 fps= 73 q=17.0 size= 2802432kB time=00:03:45.77 bitrate=101682.9kbits/s speed=1.22x    frame=13605 fps= 73 q=18.0 size= 2809600kB time=00:03:46.40 bitrate=101657.6kbits/s speed=1.22x    frame=13645 fps= 73 q=17.0 size= 2816000kB time=00:03:47.07 bitrate=101589.7kbits/s speed=1.22x    frame=13684 fps= 73 q=19.0 size= 2822912kB time=00:03:47.72 bitrate=101548.1kbits/s speed=1.22x    frame=13715 fps= 73 q=17.0 size= 2827520kB time=00:03:48.24 bitrate=101483.4kbits/s speed=1.22x    frame=13755 fps= 73 q=16.0 size= 2830848kB time=00:03:48.91 bitrate=101306.6kbits/s speed=1.22x    frame=13794 fps= 73 q=16.0 size= 2834176kB time=00:03:49.56 bitrate=101138.2kbits/s speed=1.22x    frame=13833 fps= 73 q=16.0 size= 2837760kB time=00:03:50.21 bitrate=100979.9kbits/s speed=1.22x    frame=13874 fps= 73 q=17.0 size= 2841600kB time=00:03:50.89 bitrate=100817.0kbits/s speed=1.22x    frame=13912 fps= 73 q=17.0 size= 2845440kB time=00:03:51.53 bitrate=100676.8kbits/s speed=1.22x    frame=13950 fps= 73 q=17.0 size= 2848768kB time=00:03:52.16 bitrate=100519.4kbits/s speed=1.22x    frame=13991 fps= 73 q=17.0 size= 2852864kB time=00:03:52.84 bitrate=100368.2kbits/s speed=1.22x    frame=14028 fps= 73 q=16.0 size= 2856448kB time=00:03:53.46 bitrate=100228.6kbits/s speed=1.22x    frame=14064 fps= 73 q=16.0 size= 2859776kB time=00:03:54.06 bitrate=100087.9kbits/s speed=1.22x    frame=14105 fps= 73 q=20.0 size= 2863616kB time=00:03:54.75 bitrate=99930.2kbits/s speed=1.22x    frame=14142 fps= 73 q=18.0 size= 2868736kB time=00:03:55.36 bitrate=99846.3kbits/s speed=1.22x    frame=14178 fps= 73 q=18.0 size= 2877440kB time=00:03:55.96 bitrate=99894.4kbits/s speed=1.22x    frame=14216 fps= 73 q=18.0 size= 2886912kB time=00:03:56.60 bitrate=99954.7kbits/s speed=1.22x    frame=14257 fps= 73 q=18.0 size= 2895872kB time=00:03:57.28 bitrate=99975.9kbits/s speed=1.22x    frame=14301 fps= 74 q=17.0 size= 2906624kB time=00:03:58.02 bitrate=100037.6kbits/s speed=1.22x    frame=14337 fps= 74 q=18.0 size= 2915328kB time=00:03:58.62 bitrate=100084.6kbits/s speed=1.22x    frame=14376 fps= 74 q=18.0 size= 2924288kB time=00:03:59.27 bitrate=100119.2kbits/s speed=1.22x    frame=14414 fps= 74 q=18.0 size= 2932736kB time=00:03:59.90 bitrate=100143.1kbits/s speed=1.22x    frame=14454 fps= 74 q=18.0 size= 2942464kB time=00:04:00.57 bitrate=100196.6kbits/s speed=1.22x    frame=14493 fps= 74 q=16.0 size= 2951168kB time=00:04:01.22 bitrate=100221.9kbits/s speed=1.22x    frame=14533 fps= 74 q=18.0 size= 2959104kB time=00:04:01.89 bitrate=100214.2kbits/s speed=1.22x    frame=14568 fps= 74 q=18.0 size= 2967808kB time=00:04:02.47 bitrate=100266.9kbits/s speed=1.22x    frame=14608 fps= 74 q=19.0 size= 2977280kB time=00:04:03.14 bitrate=100310.9kbits/s speed=1.22x    frame=14648 fps= 74 q=19.0 size= 2987264kB time=00:04:03.81 bitrate=100371.8kbits/s speed=1.22x    frame=14677 fps= 73 q=19.0 size= 2995712kB time=00:04:04.29 bitrate=100456.3kbits/s speed=1.22x    frame=14713 fps= 73 q=17.0 size= 3004672kB time=00:04:04.89 bitrate=100509.6kbits/s speed=1.22x    frame=14751 fps= 73 q=16.0 size= 3011328kB time=00:04:05.52 bitrate=100472.2kbits/s speed=1.22x    frame=14795 fps= 74 q=16.0 size= 3017984kB time=00:04:06.26 bitrate=100394.1kbits/s speed=1.22x    frame=14834 fps= 74 q=16.0 size= 3023104kB time=00:04:06.91 bitrate=100299.4kbits/s speed=1.22x    frame=14876 fps= 74 q=16.0 size= 3028736kB time=00:04:07.61 bitrate=100201.9kbits/s speed=1.22x    frame=14912 fps= 74 q=17.0 size= 3033600kB time=00:04:08.21 bitrate=100120.0kbits/s speed=1.22x    frame=14955 fps= 74 q=17.0 size= 3041280kB time=00:04:08.93 bitrate=100084.2kbits/s speed=1.22x    frame=14999 fps= 74 q=16.0 size= 3048448kB time=00:04:09.66 bitrate=100025.1kbits/s speed=1.23x    frame=15028 fps= 74 q=17.0 size= 3053312kB time=00:04:10.14 bitrate=99991.0kbits/s speed=1.22x    frame=15065 fps= 74 q=21.0 size= 3060224kB time=00:04:10.76 bitrate=99970.6kbits/s speed=1.22x    frame=15106 fps= 74 q=22.0 size= 3077632kB time=00:04:11.45 bitrate=100265.8kbits/s speed=1.22x    frame=15131 fps= 73 q=22.0 size= 3088896kB time=00:04:11.86 bitrate=100466.1kbits/s speed=1.22x    frame=15162 fps= 73 q=22.0 size= 3102976kB time=00:04:12.38 bitrate=100717.3kbits/s speed=1.22x    frame=15197 fps= 73 q=22.0 size= 3118080kB time=00:04:12.96 bitrate=100973.9kbits/s speed=1.22x    frame=15233 fps= 73 q=22.0 size= 3133184kB time=00:04:13.57 bitrate=101222.7kbits/s speed=1.22x    frame=15263 fps= 73 q=22.0 size= 3145728kB time=00:04:14.07 bitrate=101427.8kbits/s speed=1.22x    frame=15302 fps= 73 q=22.0 size= 3161856kB time=00:04:14.72 bitrate=101687.4kbits/s speed=1.22x    frame=15331 fps= 73 q=21.0 size= 3171584kB time=00:04:15.20 bitrate=101806.9kbits/s speed=1.22x    frame=15367 fps= 73 q=21.0 size= 3181312kB time=00:04:15.80 bitrate=101879.4kbits/s speed=1.22x    frame=15398 fps= 73 q=22.0 size= 3189760kB time=00:04:16.32 bitrate=101943.8kbits/s speed=1.22x    frame=15435 fps= 73 q=19.0 size= 3202560kB time=00:04:16.94 bitrate=102107.0kbits/s speed=1.22x    frame=15480 fps= 73 q=18.0 size= 3212032kB time=00:04:17.69 bitrate=102110.6kbits/s speed=1.22x    frame=15512 fps= 73 q=18.0 size= 3214848kB time=00:04:18.22 bitrate=101988.8kbits/s speed=1.22x    frame=15553 fps= 73 q=18.0 size= 3218688kB time=00:04:18.90 bitrate=101840.9kbits/s speed=1.22x    frame=15591 fps= 73 q=17.0 size= 3222016kB time=00:04:19.54 bitrate=101697.2kbits/s speed=1.22x    frame=15625 fps= 73 q=18.0 size= 3225344kB time=00:04:20.10 bitrate=101580.2kbits/s speed=1.22x    frame=15663 fps= 73 q=17.0 size= 3229440kB time=00:04:20.74 bitrate=101461.9kbits/s speed=1.22x    frame=15703 fps= 73 q=17.0 size= 3233280kB time=00:04:21.41 bitrate=101323.2kbits/s speed=1.22x    frame=15738 fps= 73 q=17.0 size= 3236864kB time=00:04:21.99 bitrate=101209.5kbits/s speed=1.22x    frame=15785 fps= 73 q=17.0 size= 3243776kB time=00:04:22.77 bitrate=101123.0kbits/s speed=1.22x    frame=15823 fps= 73 q=15.0 size= 3249664kB time=00:04:23.41 bitrate=101062.7kbits/s speed=1.22x    frame=15859 fps= 73 q=16.0 size= 3254272kB time=00:04:24.01 bitrate=100975.8kbits/s speed=1.22x    frame=15897 fps= 73 q=16.0 size= 3260672kB time=00:04:24.64 bitrate=100932.0kbits/s speed=1.22x    frame=15940 fps= 73 q=16.0 size= 3267584kB time=00:04:25.36 bitrate=100872.5kbits/s speed=1.22x    frame=15976 fps= 73 q=15.0 size= 3273216kB time=00:04:25.96 bitrate=100818.2kbits/s speed=1.22x    frame=16017 fps= 73 q=18.0 size= 3280384kB time=00:04:26.64 bitrate=100779.8kbits/s speed=1.22x    frame=16056 fps= 73 q=17.0 size= 3287040kB time=00:04:27.30 bitrate=100738.5kbits/s speed=1.22x    frame=16093 fps= 73 q=18.0 size= 3292672kB time=00:04:27.91 bitrate=100678.6kbits/s speed=1.22x    frame=16125 fps= 73 q=17.0 size= 3298048kB time=00:04:28.45 bitrate=100642.4kbits/s speed=1.22x    frame=16165 fps= 73 q=15.0 size= 3304192kB time=00:04:29.11 bitrate=100579.9kbits/s speed=1.22x    frame=16209 fps= 73 q=16.0 size= 3311360kB time=00:04:29.85 bitrate=100523.9kbits/s speed=1.22x    frame=16242 fps= 73 q=16.0 size= 3316992kB time=00:04:30.40 bitrate=100489.8kbits/s speed=1.22x    frame=16278 fps= 73 q=17.0 size= 3322112kB time=00:04:31.00 bitrate=100421.9kbits/s speed=1.22x    frame=16315 fps= 73 q=16.0 size= 3328000kB time=00:04:31.62 bitrate=100371.2kbits/s speed=1.22x    frame=16355 fps= 73 q=16.0 size= 3335168kB time=00:04:32.28 bitrate=100340.9kbits/s speed=1.22x    frame=16394 fps= 73 q=17.0 size= 3340800kB time=00:04:32.93 bitrate=100270.7kbits/s speed=1.22x    frame=16435 fps= 73 q=16.0 size= 3347200kB time=00:04:33.62 bitrate=100211.7kbits/s speed=1.22x    frame=16475 fps= 73 q=16.0 size= 3354368kB time=00:04:34.29 bitrate=100182.0kbits/s speed=1.22x    frame=16514 fps= 73 q=14.0 size= 3360256kB time=00:04:34.94 bitrate=100120.3kbits/s speed=1.22x    frame=16553 fps= 73 q=17.0 size= 3365632kB time=00:04:35.59 bitrate=100043.7kbits/s speed=1.22x    frame=16591 fps= 73 q=15.0 size= 3371520kB time=00:04:36.22 bitrate=99988.8kbits/s speed=1.22x    frame=16633 fps= 74 q=15.0 size= 3378176kB time=00:04:36.92 bitrate=99932.7kbits/s speed=1.22x    frame=16681 fps= 74 q=18.0 size= 3384064kB time=00:04:37.72 bitrate=99818.2kbits/s speed=1.22x    frame=16717 fps= 74 q=16.0 size= 3388928kB time=00:04:38.32 bitrate=99745.9kbits/s speed=1.22x    frame=16762 fps= 74 q=13.0 size= 3394048kB time=00:04:39.07 bitrate=99627.9kbits/s speed=1.23x    frame=16805 fps= 74 q=16.0 size= 3398656kB time=00:04:39.79 bitrate=99507.4kbits/s speed=1.23x    frame=16844 fps= 74 q=21.0 size= 3403008kB time=00:04:40.44 bitrate=99403.6kbits/s speed=1.23x    frame=16881 fps= 74 q=21.0 size= 3410944kB time=00:04:41.06 bitrate=99416.6kbits/s speed=1.23x    frame=16913 fps= 74 q=20.0 size= 3424000kB time=00:04:41.59 bitrate=99608.0kbits/s speed=1.23x    frame=16939 fps= 74 q=21.0 size= 3436288kB time=00:04:42.03 bitrate=99811.7kbits/s speed=1.22x    frame=16979 fps= 74 q=21.0 size= 3453184kB time=00:04:42.69 bitrate=100065.7kbits/s speed=1.22x    frame=17017 fps= 74 q=22.0 size= 3468032kB time=00:04:43.33 bitrate=100271.1kbits/s speed=1.22x    frame=17051 fps= 73 q=22.0 size= 3482112kB time=00:04:43.90 bitrate=100477.0kbits/s speed=1.22x    frame=17079 fps= 73 q=22.0 size= 3494144kB time=00:04:44.36 bitrate=100658.6kbits/s speed=1.22x    frame=17121 fps= 73 q=22.0 size= 3508736kB time=00:04:45.06 bitrate=100830.5kbits/s speed=1.22x    frame=17156 fps= 73 q=22.0 size= 3521792kB time=00:04:45.65 bitrate=100998.8kbits/s speed=1.22x    frame=17181 fps= 73 q=23.0 size= 3531264kB time=00:04:46.06 bitrate=101122.8kbits/s speed=1.22x    frame=17215 fps= 73 q=23.0 size= 3544832kB time=00:04:46.63 bitrate=101310.5kbits/s speed=1.22x    frame=17254 fps= 73 q=23.0 size= 3560704kB time=00:04:47.28 bitrate=101533.6kbits/s speed=1.22x    frame=17287 fps= 73 q=24.0 size= 3574528kB time=00:04:47.83 bitrate=101732.8kbits/s speed=1.22x    frame=17312 fps= 73 q=23.0 size= 3584256kB time=00:04:48.25 bitrate=101862.1kbits/s speed=1.22x    frame=17350 fps= 73 q=23.0 size= 3599616kB time=00:04:48.88 bitrate=102074.1kbits/s speed=1.22x    frame=17388 fps= 73 q=23.0 size= 3614208kB time=00:04:49.52 bitrate=102263.5kbits/s speed=1.22x    frame=17415 fps= 73 q=23.0 size= 3624192kB time=00:04:49.97 bitrate=102386.7kbits/s speed=1.22x    frame=17444 fps= 73 q=20.0 size= 3635456kB time=00:04:50.45 bitrate=102533.8kbits/s speed=1.22x    frame=17483 fps= 73 q=20.0 size= 3644672kB time=00:04:51.10 bitrate=102564.0kbits/s speed=1.22x    frame=17523 fps= 73 q=18.0 size= 3652096kB time=00:04:51.77 bitrate=102537.9kbits/s speed=1.22x    frame=17559 fps= 73 q=22.0 size= 3660800kB time=00:04:52.37 bitrate=102571.1kbits/s speed=1.22x    frame=17597 fps= 73 q=21.0 size= 3670016kB time=00:04:53.00 bitrate=102606.8kbits/s speed=1.22x    frame=17643 fps= 73 q=18.0 size= 3680256kB time=00:04:53.77 bitrate=102624.3kbits/s speed=1.22x    frame=17676 fps= 73 q=22.0 size= 3688192kB time=00:04:54.32 bitrate=102653.3kbits/s speed=1.22x    frame=17710 fps= 73 q=22.0 size= 3695360kB time=00:04:54.89 bitrate=102654.9kbits/s speed=1.22x    frame=17742 fps= 73 q=22.0 size= 3702016kB time=00:04:55.42 bitrate=102654.0kbits/s speed=1.22x    frame=17776 fps= 73 q=22.0 size= 3710464kB time=00:04:55.99 bitrate=102691.1kbits/s speed=1.22x    frame=17811 fps= 73 q=21.0 size= 3717376kB time=00:04:56.57 bitrate=102679.8kbits/s speed=1.22x    frame=17846 fps= 73 q=20.0 size= 3723520kB time=00:04:57.16 bitrate=102647.4kbits/s speed=1.22x    frame=17885 fps= 73 q=21.0 size= 3729408kB time=00:04:57.81 bitrate=102585.1kbits/s speed=1.22x    frame=17925 fps= 73 q=21.0 size= 3735040kB time=00:04:58.48 bitrate=102510.3kbits/s speed=1.22x    frame=17966 fps= 73 q=20.0 size= 3741184kB time=00:04:59.16 bitrate=102444.2kbits/s speed=1.22x    frame=18002 fps= 73 q=21.0 size= 3745536kB time=00:04:59.76 bitrate=102357.9kbits/s speed=1.22x    frame=18025 fps= 73 q=22.0 size= 3748608kB time=00:05:00.14 bitrate=102310.9kbits/s speed=1.22x    frame=18058 fps= 73 q=22.0 size= 3757056kB time=00:05:00.70 bitrate=102353.7kbits/s speed=1.22x    frame=18094 fps= 73 q=22.0 size= 3767040kB time=00:05:01.30 bitrate=102421.1kbits/s speed=1.22x    frame=18132 fps= 73 q=22.0 size= 3777280kB time=00:05:01.93 bitrate=102483.9kbits/s speed=1.22x    frame=18162 fps= 73 q=21.0 size= 3785984kB time=00:05:02.43 bitrate=102550.1kbits/s speed=1.22x    frame=18208 fps= 73 q=20.0 size= 3795200kB time=00:05:03.20 bitrate=102539.5kbits/s speed=1.22x    frame=18246 fps= 73 q=22.0 size= 3800832kB time=00:05:03.83 bitrate=102477.4kbits/s speed=1.22x    frame=18272 fps= 73 q=20.0 size= 3804928kB time=00:05:04.27 bitrate=102441.6kbits/s speed=1.22x    frame=18306 fps= 73 q=24.0 size= 3811072kB time=00:05:04.83 bitrate=102416.1kbits/s speed=1.22x    frame=18343 fps= 73 q=24.0 size= 3821056kB time=00:05:05.45 bitrate=102476.9kbits/s speed=1.22x    frame=18378 fps= 73 q=24.0 size= 3834624kB time=00:05:06.03 bitrate=102644.5kbits/s speed=1.22x    frame=18412 fps= 73 q=24.0 size= 3848448kB time=00:05:06.60 bitrate=102824.0kbits/s speed=1.22x    frame=18440 fps= 73 q=24.0 size= 3858688kB time=00:05:07.07 bitrate=102940.7kbits/s speed=1.22x    frame=18476 fps= 73 q=24.0 size= 3872256kB time=00:05:07.67 bitrate=103101.1kbits/s speed=1.22x    frame=18509 fps= 73 q=24.0 size= 3884288kB time=00:05:08.22 bitrate=103236.7kbits/s speed=1.22x    frame=18548 fps= 73 q=24.0 size= 3898624kB time=00:05:08.87 bitrate=103399.4kbits/s speed=1.22x    frame=18581 fps= 73 q=24.0 size= 3910144kB time=00:05:09.42 bitrate=103520.4kbits/s speed=1.22x    frame=18613 fps= 73 q=24.0 size= 3920896kB time=00:05:09.95 bitrate=103626.3kbits/s speed=1.22x    frame=18641 fps= 73 q=24.0 size= 3930880kB time=00:05:10.42 bitrate=103733.9kbits/s speed=1.21x    frame=18687 fps= 73 q=25.0 size= 3945984kB time=00:05:11.19 bitrate=103875.6kbits/s speed=1.22x    frame=18719 fps= 73 q=25.0 size= 3956480kB time=00:05:11.72 bitrate=103973.6kbits/s speed=1.21x    frame=18746 fps= 73 q=25.0 size= 3965440kB time=00:05:12.17 bitrate=104058.7kbits/s speed=1.21x    frame=18782 fps= 73 q=25.0 size= 3977472kB time=00:05:12.77 bitrate=104174.0kbits/s speed=1.21x    frame=18808 fps= 73 q=-1.0 Lsize= 3996403kB time=00:05:13.76 bitrate=104341.4kbits/s speed=1.22x    
video:3996292kB audio:0kB subtitle:0kB other streams:0kB global headers:0kB muxing overhead: 0.002779%
[libx264 @ 0x558e82d452c0] frame I:157   Avg QP:14.91  size:1147353
[libx264 @ 0x558e82d452c0] frame P:18651 Avg QP:17.90  size:209751
[libx264 @ 0x558e82d452c0] mb I  I16..4: 100.0%  0.0%  0.0%
[libx264 @ 0x558e82d452c0] mb P  I16..4:  5.3%  0.0%  0.0%  P16..4: 58.1%  0.0%  0.0%  0.0%  0.0%    skip:36.7%
[libx264 @ 0x558e82d452c0] final ratefactor: 17.23
[libx264 @ 0x558e82d452c0] coded y,uvDC,uvAC intra: 26.7% 52.5% 25.0% inter: 27.3% 34.7% 8.3%
[libx264 @ 0x558e82d452c0] i16 v,h,dc,p: 35% 28% 13% 24%
[libx264 @ 0x558e82d452c0] i8c dc,h,v,p: 40% 25% 19% 16%
[libx264 @ 0x558e82d452c0] kb/s:104332.98
